<?xml version="1.0" standalone="no"?>
<!DOCTYPE svg PUBLIC "-//W3C//DTD SVG 20010904//EN"
 "http://www.w3.org/TR/2001/REC-SVG-20010904/DTD/svg10.dtd">
<svg version="1.0" xmlns="http://www.w3.org/2000/svg"
 width="270.000000pt" height="270.000000pt" viewBox="0 0 270.000000 270.000000"
 preserveAspectRatio="xMidYMid meet">
<metadata>
Created by potrace 1.11, written by Peter Selinger 2001-2013
</metadata>
<g transform="translate(0.000000,270.000000) scale(0.100000,-0.100000)"
fill="#000000" stroke="none">
<path d="M1108 2635 c-1 -1 -43 -6 -93 -9 -49 -3 -101 -8 -115 -10 -14 -2 -50
-7 -80 -11 -30 -4 -68 -9 -85 -11 -29 -4 -218 -38 -260 -48 -180 -39 -266 -60
-292 -71 l-31 -13 3 -239 c3 -223 5 -268 20 -368 4 -22 9 -60 11 -85 3 -25 7
-51 10 -59 2 -7 12 -48 20 -90 21 -98 19 -89 33 -138 133 -470 398 -876 781
-1197 129 -109 296 -226 320 -226 28 0 216 134 355 254 251 217 474 510 617
813 92 195 182 510 204 713 3 30 8 66 11 80 3 14 7 141 9 282 4 270 4 268 -41
276 -11 1 -58 12 -105 23 -47 12 -94 23 -105 25 -11 2 -29 6 -40 8 -81 18
-304 58 -340 61 -11 1 -42 5 -70 9 -27 3 -75 9 -105 12 -30 3 -75 8 -100 10
-51 6 -526 14 -532 9z"/>
</g>
</svg>
